<svg xmlns="http://www.w3.org/2000/svg" xml:space="preserve" viewBox="620 325 1860 325" version="1.1" style="shape-rendering:geometricPrecision; text-rendering:geometricPrecision; fill-rule:evenodd; clip-rule:evenodd">
 <defs>
  <style type="text/css">
   <![CDATA[
    .fil3 {fill:#DF1D3F}
   ]]>
  </style>
 </defs>
 <g id="InaraWordmark">
  <path class="fil3" d="M737.09 336.96l0 -0.6 -111.07 0 0 0.58c3.51,0.83 7.08,1.85 10.31,3.21 4.06,1.71 7.7,4.24 10.09,7.84 2.52,3.57 3.78,7.73 4.13,11.9 0.49,4.81 0.63,9.74 0.63,14.57l0 152.07c0,4.91 -0.14,9.95 -0.77,14.81 -0.56,4.21 -1.75,8.33 -4.13,11.74 -2.53,3.72 -6.17,6.26 -10.31,7.91 -3.08,1.27 -6.51,2.24 -9.95,3.05l0 0.59 111.07 0 0 -0.54c-2.52,-0.59 -4.97,-1.29 -7.35,-2.14 -3.37,-1.17 -6.66,-2.78 -9.39,-5.1 -2.53,-2.13 -4.42,-4.78 -5.75,-7.82 -1.4,-3.26 -1.96,-6.99 -2.31,-10.52 -0.35,-3.98 -0.49,-7.98 -0.49,-11.98l0 -151.89c0,-5.2 0.07,-10.98 1.05,-15.97 0.63,-3.93 1.96,-7.71 4.34,-10.8 2.31,-3.31 5.61,-5.61 9.18,-7.35 3.22,-1.55 7.01,-2.67 10.72,-3.56z"/>
  <path class="fil3" d="M922.89 467.47l0 -81.08 0.14 0.31c7.85,12.26 16.61,24.26 25.51,35.92l5.6 7.34 103.92 134.67 50.53 0 0 -15.63 -16.54 -21.86 0 -4.2 0 -115.71 0 -32.77c0,-5.66 0.14,-12.59 1.61,-18.06 1.05,-3.92 2.73,-7.87 5.75,-10.85 2.52,-2.39 5.39,-4.21 8.48,-5.4 2.87,-1.22 6.23,-2.18 9.53,-3.04l0 -0.75 -76.59 0 0 0.65c3.5,0.84 7.07,1.84 10.02,3.14 3.22,1.36 6.3,3.29 8.55,5.78 2.87,2.93 4.41,6.81 5.18,10.61 1.26,5.48 1.33,12.3 1.33,17.92l0 32.77 0 1.43 0 1.43 0 85.9c-5.67,-8.87 -11.63,-17.58 -17.73,-26.16 -3.36,-4.66 -6.65,-9.32 -10.02,-13.96l-21.72 -28.68 -69.66 -90.83 -53.95 0 -10.8 0 -10.44 0 0 0.6c5.12,1.24 10.8,3.02 14.65,5.73 0.56,0.37 1.05,0.77 1.61,1.17l6.24 8.15c0.35,0.72 0.63,1.48 0.84,2.25 1.75,5.67 1.82,14.09 1.82,20.02l0 124.05 0 28.38c0,4.8 -0.14,9.76 -0.77,14.52 -0.56,4.14 -1.82,8.17 -4.2,11.77 -2.53,3.64 -6.1,6.14 -10.17,7.85 -3.15,1.33 -6.58,2.34 -10.02,3.17l0 0.61 76.59 0 0 -0.57c-5.11,-1.19 -10.78,-2.89 -14.57,-5.49 -4.13,-2.84 -7.22,-6.68 -8.76,-11.48 -1.89,-5.76 -1.96,-14.32 -1.96,-20.38l0 -28.38 0 -28.38 0 -1.24 0 -1.24z"/>
  <path class="fil3" d="M1470.08 446.68l-51.09 -110.32 -46.35 0 -83.13 193.26c-3.45,6.91 -7.68,15.06 -12.62,21.02 -3.68,4.42 -7.98,8.17 -13.12,10.83 -3.72,1.94 -7.74,3.25 -11.85,4.1l0 0.32 88.87 0c-5.69,-0.82 -11.45,-2.53 -15.89,-5.97 -14.33,-11.08 -9.42,-34.57 -2.53,-48.73l55.77 -130.96 62.18 132.41c2.16,5.89 4.51,12.16 6.14,18.38 0.99,4.19 1.52,8.46 1.52,12.77 0,6.84 -2.83,12.62 -8.48,16.5 -4.4,3.04 -10.01,4.64 -15.48,5.51l0 0.09 117.65 0 0 -0.47c-4.47,-1.03 -8.94,-2.54 -12.77,-4.87 -4.55,-2.76 -8.3,-6.42 -11.14,-10.93 -17.25,-27.41 -33,-71.25 -47.68,-102.94z"/>
  <path class="fil3" d="M1905.53 527.89l-55.22 -63.68 4.77 0c35.18,0 63.91,-28.76 63.91,-63.93 0,-15.94 -5.89,-30.58 -15.63,-41.81 -11.77,-13.53 -29.08,-22.11 -48.28,-22.11l-18.43 0 -70.5 0 -89.97 0 0 0.58c3.5,0.85 7.14,1.9 10.37,3.3 3.92,1.75 7.49,4.24 10.02,7.84 2.52,3.63 3.71,7.79 4.06,12.01 0.56,4.81 0.7,9.71 0.7,14.55l0 151.89c0,4.91 -0.14,9.95 -0.77,14.81 -0.56,4.2 -1.82,8.32 -4.2,11.74 -2.45,3.72 -6.1,6.26 -10.23,7.91 -3.16,1.27 -6.59,2.24 -9.95,3.05l0 0.59 89.97 0 24.11 0 0 -0.25c-3.99,-0.67 -8.06,-1.57 -11.63,-2.92 -3.72,-1.45 -7.36,-3.43 -10.02,-6.39 -2.81,-2.93 -4.49,-6.59 -5.33,-10.42 -1.33,-5.36 -1.4,-12.41 -1.4,-17.94l0 -29.64c0,-50.56 0,-101.12 0,-151.69l0 -0.4 44.99 0c19.06,0 36.02,9.8 45.97,24.62 4.62,6.96 7.77,15.02 8.9,23.71 0.28,2.28 0.42,4.62 0.42,6.97 0,19.88 -10.58,37.38 -26.42,47.13 -8.41,5.19 -18.29,8.19 -28.87,8.19l-30.84 0 13.6 15.7 0.07 0.14 0.14 0.13 0.14 0.12 0.07 0.13 0.14 0.13 0.07 0.13 0.14 0.12 0.14 0.14 27.12 31.39 8.83 10.15c5.53,6.41 11.21,12.93 16.47,19.71 2.1,2.78 4.62,6.26 5.88,9.65 0.91,2.44 1.4,4.99 1.4,7.59 0,4.22 -1.89,7.85 -5.32,10.31 -2.25,1.62 -5.26,2.6 -8.27,3.22l0 0.27 115.06 0 0 -0.47c-2.8,-0.73 -5.6,-1.59 -8.2,-2.66 -3.85,-1.51 -7.42,-3.68 -10.72,-6.15 -4.13,-3.07 -7.99,-6.74 -11.56,-10.37 -5.47,-5.46 -10.65,-11.27 -15.7,-17.09z"/>
  <path class="fil3" d="M2304.38 446.68l-51.09 -110.32 -46.35 0 -83.12 193.26c-3.46,6.91 -7.69,15.06 -12.63,21.02 -3.67,4.42 -7.98,8.17 -13.11,10.83 -3.72,1.94 -7.75,3.25 -11.86,4.1l0 0.32 88.87 0c-5.69,-0.82 -11.45,-2.53 -15.89,-5.97 -14.33,-11.08 -9.42,-34.57 -2.53,-48.73l55.78 -130.96 62.17 132.41c2.16,5.89 4.51,12.16 6.14,18.38 0.99,4.19 1.52,8.46 1.52,12.77 0,6.84 -2.83,12.62 -8.48,16.5 -4.4,3.04 -10.01,4.64 -15.48,5.51l0 0.09 117.65 0 0 -0.47c-4.47,-1.03 -8.94,-2.54 -12.77,-4.87 -4.55,-2.76 -8.3,-6.42 -11.14,-10.93 -17.25,-27.41 -33,-71.25 -47.68,-102.94z"/>
 </g>
</svg>
