<svg xmlns="http://www.w3.org/2000/svg" xml:space="preserve" width="3002px" height="2702px" version="1.1" style="shape-rendering:geometricPrecision; text-rendering:geometricPrecision; image-rendering:optimizeQuality; fill-rule:evenodd; clip-rule:evenodd"
viewBox="0 0 3002 2702.04"
 xmlns:xlink="http://www.w3.org/1999/xlink"
 xmlns:xodm="http://www.corel.com/coreldraw/odm/2003">
 <defs>
  <style type="text/css">
   <![CDATA[
    .str0 {stroke:#434242;stroke-width:2.36;stroke-miterlimit:22.9256}
    .str1 {stroke:#2B2A29;stroke-width:2.36;stroke-miterlimit:22.9256}
    .fil2 {fill:#FEFEFE}
    .fil4 {fill:#FEFEFE}
    .fil0 {fill:#2B2A29}
    .fil3 {fill:#DF1D3F}
    .fil5 {fill:#EFE2D9}
    .fil1 {fill:#EFE2D9}
   ]]>
  </style>
 </defs>
 <g id="Layer_x0020_1">
  <metadata id="CorelCorpID_0Corel-Layer"/>
  <g id="_2904557040992">
   <rect class="fil0 str0" x="1.18" y="1800.96" width="1499.82" height="899.89"/>
   <rect class="fil1 str0" x="1501" y="1800.96" width="1499.82" height="899.89"/>
   <path class="fil2" d="M338.32 2189.22l0 -0.32 -60.02 0 0 0.31c1.9,0.45 3.83,1 5.57,1.73 2.2,0.93 4.16,2.3 5.45,4.24 1.37,1.93 2.05,4.18 2.24,6.43 0.26,2.6 0.34,5.26 0.34,7.87l0 82.17c0,2.65 -0.08,5.38 -0.42,8 -0.3,2.28 -0.95,4.51 -2.23,6.35 -1.37,2.01 -3.34,3.38 -5.57,4.28 -1.67,0.68 -3.52,1.2 -5.38,1.64l0 0.32 60.02 0 0 -0.29c-1.36,-0.32 -2.69,-0.7 -3.98,-1.16 -1.81,-0.63 -3.6,-1.5 -5.07,-2.75 -1.36,-1.16 -2.39,-2.59 -3.11,-4.23 -0.75,-1.76 -1.06,-3.78 -1.25,-5.68 -0.19,-2.15 -0.26,-4.31 -0.26,-6.48l0 -82.07c0,-2.81 0.04,-5.93 0.57,-8.63 0.34,-2.13 1.06,-4.17 2.34,-5.83 1.25,-1.79 3.03,-3.04 4.97,-3.98 1.74,-0.84 3.78,-1.44 5.79,-1.92z"/>
   <path class="fil2" d="M438.71 2259.74l0 -43.81 0.08 0.17c4.24,6.62 8.97,13.11 13.78,19.4l3.03 3.97 56.15 72.77 27.3 0 0 -8.44 -8.93 -11.82 0 -2.27 0 -62.52 0 -17.71c0,-3.06 0.07,-6.8 0.87,-9.75 0.57,-2.12 1.48,-4.26 3.1,-5.87 1.37,-1.29 2.92,-2.27 4.58,-2.92 1.56,-0.65 3.37,-1.18 5.15,-1.64l0 -0.4 -41.38 0 0 0.35c1.89,0.45 3.82,0.99 5.41,1.69 1.74,0.74 3.41,1.78 4.62,3.13 1.55,1.58 2.39,3.68 2.8,5.73 0.69,2.96 0.72,6.65 0.72,9.68l0 17.71 0 0.77 0 0.78 0 46.41c-3.06,-4.79 -6.28,-9.5 -9.58,-14.14 -1.81,-2.51 -3.59,-5.03 -5.41,-7.54l-11.74 -15.49 -37.64 -49.08 -29.15 0 -5.83 0 -5.65 0 0 0.32c2.77,0.67 5.84,1.63 7.92,3.1 0.3,0.2 0.57,0.41 0.87,0.63l3.37 4.4c0.19,0.39 0.34,0.8 0.45,1.22 0.95,3.06 0.99,7.61 0.99,10.81l0 67.04 0 15.33c0,2.6 -0.08,5.27 -0.42,7.84 -0.3,2.24 -0.98,4.42 -2.27,6.37 -1.36,1.96 -3.29,3.31 -5.49,4.24 -1.71,0.72 -3.56,1.26 -5.42,1.71l0 0.33 41.39 0 0 -0.31c-2.76,-0.64 -5.83,-1.56 -7.87,-2.96 -2.24,-1.54 -3.91,-3.61 -4.74,-6.21 -1.02,-3.11 -1.06,-7.74 -1.06,-11.01l0 -15.33 0 -15.34 0 -0.67 0 -0.67z"/>
   <path class="fil2" d="M734.38 2248.51l-27.61 -59.61 -25.04 0 -44.91 104.42c-1.87,3.74 -4.16,8.14 -6.83,11.36 -1.98,2.39 -4.31,4.42 -7.08,5.85 -2.01,1.05 -4.19,1.76 -6.41,2.22l0 0.17 48.02 0c-3.07,-0.44 -6.19,-1.37 -8.59,-3.22 -7.74,-5.99 -5.09,-18.69 -1.36,-26.34l30.14 -70.76 33.59 71.55c1.17,3.18 2.44,6.57 3.32,9.93 0.54,2.26 0.82,4.57 0.82,6.9 0,3.7 -1.53,6.82 -4.58,8.92 -2.38,1.64 -5.41,2.5 -8.37,2.97l0 0.05 63.58 0 0 -0.25c-2.42,-0.56 -4.84,-1.38 -6.9,-2.63 -2.46,-1.49 -4.49,-3.48 -6.03,-5.91 -9.31,-14.81 -17.83,-38.5 -25.76,-55.62z"/>
   <path class="fil2" d="M969.68 2292.38l-29.84 -34.4 2.58 0c19,0 34.53,-15.54 34.53,-34.54 0,-8.62 -3.18,-16.53 -8.45,-22.6 -6.36,-7.31 -15.71,-11.94 -26.08,-11.94l-9.96 0 -38.1 0 -48.61 0 0 0.31c1.89,0.46 3.86,1.02 5.6,1.78 2.12,0.95 4.05,2.29 5.41,4.24 1.37,1.96 2.01,4.21 2.2,6.49 0.3,2.6 0.38,5.24 0.38,7.86l0 82.07c0,2.65 -0.08,5.38 -0.42,8 -0.3,2.28 -0.98,4.5 -2.27,6.35 -1.32,2.01 -3.29,3.38 -5.53,4.28 -1.7,0.68 -3.56,1.2 -5.37,1.64l0 0.32 48.61 0 13.03 0 0 -0.14c-2.16,-0.36 -4.35,-0.84 -6.29,-1.57 -2,-0.79 -3.97,-1.86 -5.41,-3.45 -1.51,-1.59 -2.42,-3.57 -2.88,-5.63 -0.72,-2.91 -0.76,-6.71 -0.76,-9.7l0 -16.01c0,-27.32 0,-54.65 0,-81.97l0 -0.22 24.31 0c10.3,0 19.47,5.3 24.84,13.3 2.5,3.77 4.21,8.12 4.81,12.82 0.15,1.23 0.23,2.49 0.23,3.77 0,10.74 -5.72,20.19 -14.28,25.46 -4.54,2.81 -9.88,4.43 -15.6,4.43l-16.66 0 7.35 8.48 0.04 0.07 0.07 0.07 0.08 0.07 0.04 0.07 0.07 0.07 0.04 0.07 0.07 0.07 0.08 0.07 14.66 16.96 4.77 5.49c2.99,3.46 6.05,6.98 8.89,10.65 1.14,1.5 2.5,3.38 3.18,5.21 0.5,1.32 0.76,2.7 0.76,4.1 0,2.28 -1.02,4.25 -2.88,5.57 -1.21,0.88 -2.84,1.41 -4.46,1.74l0 0.15 62.17 0 0 -0.26c-1.51,-0.39 -3.03,-0.85 -4.43,-1.43 -2.08,-0.82 -4.01,-1.99 -5.79,-3.33 -2.24,-1.65 -4.32,-3.64 -6.25,-5.6 -2.95,-2.95 -5.76,-6.09 -8.48,-9.24z"/>
   <path class="fil2" d="M1185.19 2248.51l-27.61 -59.61 -25.04 0 -44.91 104.42c-1.87,3.74 -4.16,8.14 -6.83,11.36 -1.98,2.39 -4.31,4.42 -7.08,5.85 -2.01,1.05 -4.19,1.76 -6.41,2.22l0 0.17 48.02 0c-3.07,-0.44 -6.19,-1.37 -8.59,-3.22 -7.74,-5.99 -5.09,-18.69 -1.36,-26.34l30.14 -70.76 33.59 71.55c1.17,3.18 2.44,6.57 3.32,9.93 0.53,2.26 0.82,4.57 0.82,6.9 0,3.7 -1.53,6.82 -4.58,8.92 -2.38,1.64 -5.41,2.5 -8.37,2.97l0 0.05 63.58 0 0 -0.25c-2.42,-0.56 -4.84,-1.38 -6.9,-2.63 -2.46,-1.49 -4.49,-3.48 -6.02,-5.91 -9.32,-14.81 -17.84,-38.5 -25.77,-55.62z"/>
   <path class="fil3" d="M1838.14 2189.22l0 -0.32 -60.02 0 0 0.31c1.89,0.45 3.83,1 5.57,1.73 2.19,0.93 4.16,2.3 5.45,4.24 1.36,1.93 2.05,4.18 2.23,6.43 0.27,2.6 0.34,5.26 0.34,7.87l0 82.17c0,2.65 -0.07,5.38 -0.41,8 -0.3,2.28 -0.95,4.51 -2.24,6.35 -1.36,2.01 -3.33,3.38 -5.56,4.28 -1.67,0.68 -3.52,1.2 -5.38,1.64l0 0.32 60.02 0 0 -0.29c-1.37,-0.32 -2.69,-0.7 -3.98,-1.16 -1.82,-0.63 -3.6,-1.5 -5.07,-2.75 -1.37,-1.16 -2.39,-2.59 -3.11,-4.23 -0.75,-1.76 -1.06,-3.78 -1.25,-5.68 -0.19,-2.15 -0.26,-4.31 -0.26,-6.48l0 -82.07c0,-2.81 0.04,-5.93 0.57,-8.63 0.34,-2.13 1.06,-4.17 2.34,-5.83 1.25,-1.79 3.03,-3.04 4.96,-3.98 1.75,-0.84 3.79,-1.44 5.8,-1.92z"/>
   <path class="fil3" d="M1938.53 2259.74l0 -43.81 0.08 0.17c4.24,6.62 8.97,13.11 13.78,19.4l3.03 3.97 56.15 72.77 27.3 0 0 -8.44 -8.93 -11.82 0 -2.27 0 -62.52 0 -17.71c0,-3.06 0.07,-6.8 0.87,-9.75 0.56,-2.12 1.47,-4.26 3.1,-5.87 1.37,-1.29 2.92,-2.27 4.58,-2.92 1.56,-0.65 3.37,-1.18 5.15,-1.64l0 -0.4 -41.38 0 0 0.35c1.89,0.45 3.82,0.99 5.41,1.69 1.74,0.74 3.41,1.78 4.62,3.13 1.55,1.58 2.39,3.68 2.8,5.73 0.68,2.96 0.72,6.65 0.72,9.68l0 17.71 0 0.77 0 0.78 0 46.41c-3.06,-4.79 -6.28,-9.5 -9.58,-14.14 -1.82,-2.51 -3.59,-5.03 -5.41,-7.54l-11.74 -15.49 -37.64 -49.08 -29.15 0 -5.84 0 -5.64 0 0 0.32c2.77,0.67 5.83,1.63 7.92,3.1 0.3,0.2 0.56,0.41 0.87,0.63l3.37 4.4c0.19,0.39 0.34,0.8 0.45,1.22 0.95,3.06 0.99,7.61 0.99,10.81l0 67.04 0 15.33c0,2.6 -0.08,5.27 -0.42,7.84 -0.3,2.24 -0.98,4.42 -2.27,6.37 -1.36,1.96 -3.3,3.31 -5.49,4.24 -1.71,0.72 -3.56,1.26 -5.42,1.71l0 0.33 41.39 0 0 -0.31c-2.76,-0.64 -5.83,-1.56 -7.88,-2.96 -2.23,-1.54 -3.9,-3.61 -4.73,-6.21 -1.02,-3.11 -1.06,-7.74 -1.06,-11.01l0 -15.33 0 -15.34 0 -0.67 0 -0.67z"/>
   <path class="fil3" d="M2234.2 2248.51l-27.61 -59.61 -25.04 0 -44.91 104.42c-1.87,3.74 -4.16,8.14 -6.83,11.36 -1.98,2.39 -4.31,4.42 -7.08,5.85 -2.01,1.05 -4.19,1.76 -6.41,2.22l0 0.17 48.02 0c-3.07,-0.44 -6.19,-1.37 -8.59,-3.22 -7.74,-5.99 -5.09,-18.69 -1.37,-26.34l30.15 -70.76 33.59 71.55c1.17,3.18 2.44,6.57 3.32,9.93 0.53,2.26 0.82,4.57 0.82,6.9 0,3.7 -1.53,6.82 -4.58,8.92 -2.38,1.64 -5.41,2.5 -8.37,2.97l0 0.05 63.58 0 0 -0.25c-2.42,-0.56 -4.84,-1.38 -6.91,-2.63 -2.45,-1.49 -4.48,-3.48 -6.02,-5.91 -9.32,-14.81 -17.83,-38.5 -25.76,-55.62z"/>
   <path class="fil3" d="M2469.5 2292.38l-29.84 -34.4 2.57 0c19.01,0 34.54,-15.54 34.54,-34.54 0,-8.62 -3.18,-16.53 -8.45,-22.6 -6.36,-7.31 -15.71,-11.94 -26.09,-11.94l-9.95 0 -38.1 0 -48.62 0 0 0.31c1.9,0.46 3.87,1.02 5.61,1.78 2.12,0.95 4.05,2.29 5.41,4.24 1.37,1.96 2.01,4.21 2.2,6.49 0.3,2.6 0.38,5.24 0.38,7.86l0 82.07c0,2.65 -0.08,5.38 -0.42,8 -0.3,2.28 -0.98,4.5 -2.27,6.35 -1.33,2.01 -3.29,3.38 -5.53,4.28 -1.7,0.68 -3.56,1.2 -5.38,1.64l0 0.32 48.62 0 13.03 0 0 -0.14c-2.16,-0.36 -4.35,-0.84 -6.29,-1.57 -2,-0.79 -3.97,-1.86 -5.41,-3.45 -1.52,-1.59 -2.42,-3.57 -2.88,-5.63 -0.72,-2.91 -0.76,-6.71 -0.76,-9.7l0 -16.01c0,-27.32 0,-54.65 0,-81.97l0 -0.22 24.31 0c10.3,0 19.46,5.3 24.84,13.3 2.5,3.77 4.2,8.12 4.81,12.82 0.15,1.23 0.23,2.49 0.23,3.77 0,10.74 -5.72,20.19 -14.28,25.46 -4.54,2.81 -9.88,4.43 -15.6,4.43l-16.66 0 7.35 8.48 0.04 0.07 0.07 0.07 0.08 0.07 0.04 0.07 0.07 0.07 0.04 0.07 0.07 0.07 0.08 0.07 14.65 16.96 4.78 5.49c2.99,3.46 6.05,6.98 8.89,10.65 1.14,1.5 2.5,3.38 3.18,5.21 0.5,1.32 0.76,2.7 0.76,4.1 0,2.28 -1.02,4.25 -2.88,5.57 -1.21,0.88 -2.84,1.41 -4.46,1.74l0 0.15 62.17 0 0 -0.26c-1.52,-0.39 -3.03,-0.85 -4.43,-1.43 -2.08,-0.82 -4.01,-1.99 -5.79,-3.33 -2.24,-1.65 -4.32,-3.64 -6.25,-5.6 -2.96,-2.95 -5.76,-6.09 -8.48,-9.24z"/>
   <path class="fil3" d="M2685.01 2248.51l-27.61 -59.61 -25.04 0 -44.92 104.42c-1.86,3.74 -4.15,8.14 -6.82,11.36 -1.98,2.39 -4.31,4.42 -7.08,5.85 -2.01,1.05 -4.19,1.76 -6.41,2.22l0 0.17 48.02 0c-3.07,-0.44 -6.19,-1.37 -8.59,-3.22 -7.74,-5.99 -5.09,-18.69 -1.36,-26.34l30.14 -70.76 33.59 71.55c1.17,3.18 2.44,6.57 3.32,9.93 0.53,2.26 0.82,4.57 0.82,6.9 0,3.7 -1.53,6.82 -4.58,8.92 -2.38,1.64 -5.41,2.5 -8.37,2.97l0 0.05 63.58 0 0 -0.25c-2.42,-0.56 -4.84,-1.38 -6.91,-2.63 -2.45,-1.49 -4.48,-3.48 -6.02,-5.91 -9.31,-14.81 -17.83,-38.5 -25.76,-55.62z"/>
   <rect class="fil4 str0" x="1.18" y="901.07" width="1499.82" height="899.89"/>
   <rect class="fil3 str0" x="1501" y="901.07" width="1499.82" height="899.89"/>
   <path class="fil0" d="M338.32 1289.33l0 -0.33 -60.02 0 0 0.32c1.9,0.45 3.83,1 5.57,1.73 2.2,0.93 4.16,2.29 5.45,4.24 1.37,1.93 2.05,4.18 2.24,6.43 0.26,2.6 0.34,5.26 0.34,7.87l0 82.17c0,2.65 -0.08,5.38 -0.42,8 -0.3,2.28 -0.95,4.51 -2.23,6.35 -1.37,2.01 -3.34,3.38 -5.57,4.27 -1.67,0.69 -3.52,1.21 -5.38,1.65l0 0.32 60.02 0 0 -0.3c-1.36,-0.31 -2.69,-0.69 -3.98,-1.15 -1.81,-0.63 -3.6,-1.5 -5.07,-2.75 -1.36,-1.16 -2.39,-2.59 -3.11,-4.23 -0.75,-1.76 -1.06,-3.78 -1.25,-5.68 -0.19,-2.15 -0.26,-4.32 -0.26,-6.48l0 -82.07c0,-2.81 0.04,-5.93 0.57,-8.63 0.34,-2.13 1.06,-4.17 2.34,-5.83 1.25,-1.8 3.03,-3.04 4.97,-3.98 1.74,-0.84 3.78,-1.44 5.79,-1.92z"/>
   <path class="fil0" d="M438.71 1359.85l0 -43.81 0.08 0.17c4.24,6.62 8.97,13.11 13.78,19.4l3.03 3.97 56.15 72.77 27.3 0 0 -8.44 -8.93 -11.82 0 -2.27 0 -62.52 0 -17.71c0,-3.06 0.07,-6.8 0.87,-9.76 0.57,-2.11 1.48,-4.25 3.1,-5.86 1.37,-1.29 2.92,-2.28 4.58,-2.92 1.56,-0.66 3.37,-1.18 5.15,-1.64l0 -0.41 -41.38 0 0 0.36c1.89,0.45 3.82,0.99 5.41,1.69 1.74,0.74 3.41,1.78 4.62,3.13 1.55,1.58 2.39,3.67 2.8,5.73 0.69,2.96 0.72,6.64 0.72,9.68l0 17.71 0 0.77 0 0.78 0 46.41c-3.06,-4.79 -6.28,-9.5 -9.58,-14.14 -1.81,-2.51 -3.59,-5.03 -5.41,-7.54l-11.74 -15.49 -37.64 -49.09 -29.15 0 -5.83 0 -5.65 0 0 0.33c2.77,0.67 5.84,1.63 7.92,3.09 0.3,0.2 0.57,0.42 0.87,0.64l3.37 4.4c0.19,0.39 0.34,0.8 0.45,1.22 0.95,3.06 0.99,7.61 0.99,10.81l0 67.04 0 15.33c0,2.59 -0.08,5.27 -0.42,7.84 -0.3,2.24 -0.98,4.42 -2.27,6.36 -1.36,1.97 -3.29,3.32 -5.49,4.24 -1.71,0.72 -3.56,1.27 -5.42,1.72l0 0.33 41.39 0 0 -0.31c-2.76,-0.64 -5.83,-1.56 -7.87,-2.97 -2.24,-1.53 -3.91,-3.6 -4.74,-6.2 -1.02,-3.11 -1.06,-7.74 -1.06,-11.01l0 -15.33 0 -15.34 0 -0.67 0 -0.67z"/>
   <path class="fil0" d="M734.38 1348.62l-27.61 -59.62 -25.04 0 -44.91 104.43c-1.87,3.74 -4.16,8.14 -6.83,11.36 -1.98,2.39 -4.31,4.42 -7.08,5.85 -2.01,1.05 -4.19,1.75 -6.41,2.22l0 0.17 48.02 0c-3.07,-0.45 -6.19,-1.37 -8.59,-3.22 -7.74,-5.99 -5.09,-18.69 -1.36,-26.34l30.14 -70.76 33.59 71.55c1.17,3.18 2.44,6.57 3.32,9.92 0.54,2.27 0.82,4.58 0.82,6.91 0,3.69 -1.53,6.81 -4.58,8.91 -2.38,1.65 -5.41,2.51 -8.37,2.98l0 0.05 63.58 0 0 -0.25c-2.42,-0.56 -4.84,-1.38 -6.9,-2.63 -2.46,-1.5 -4.49,-3.48 -6.03,-5.91 -9.31,-14.81 -17.83,-38.5 -25.76,-55.62z"/>
   <path class="fil0" d="M969.68 1392.49l-29.84 -34.4 2.58 0c19,0 34.53,-15.54 34.53,-34.55 0,-8.61 -3.18,-16.52 -8.45,-22.59 -6.36,-7.31 -15.71,-11.95 -26.08,-11.95l-9.96 0 -38.1 0 -48.61 0 0 0.32c1.89,0.46 3.86,1.02 5.6,1.78 2.12,0.95 4.05,2.29 5.41,4.24 1.37,1.96 2.01,4.21 2.2,6.49 0.3,2.6 0.38,5.24 0.38,7.86l0 82.07c0,2.65 -0.08,5.38 -0.42,8 -0.3,2.28 -0.98,4.5 -2.27,6.35 -1.32,2.01 -3.29,3.38 -5.53,4.27 -1.7,0.69 -3.56,1.21 -5.37,1.65l0 0.32 48.61 0 13.03 0 0 -0.14c-2.16,-0.36 -4.35,-0.84 -6.29,-1.58 -2,-0.78 -3.97,-1.85 -5.41,-3.45 -1.51,-1.58 -2.42,-3.56 -2.88,-5.63 -0.72,-2.9 -0.76,-6.7 -0.76,-9.69l0 -16.02c0,-27.32 0,-54.64 0,-81.96l0 -0.22 24.31 0c10.3,0 19.47,5.3 24.84,13.3 2.5,3.76 4.21,8.12 4.81,12.81 0.15,1.24 0.23,2.5 0.23,3.77 0,10.74 -5.72,20.2 -14.28,25.47 -4.54,2.81 -9.88,4.42 -15.6,4.42l-16.66 0 7.35 8.49 0.04 0.07 0.07 0.07 0.08 0.07 0.04 0.07 0.07 0.07 0.04 0.07 0.07 0.07 0.08 0.07 14.66 16.96 4.77 5.49c2.99,3.46 6.05,6.98 8.89,10.64 1.14,1.51 2.5,3.39 3.18,5.22 0.5,1.32 0.76,2.7 0.76,4.1 0,2.28 -1.02,4.24 -2.88,5.57 -1.21,0.88 -2.84,1.4 -4.46,1.74l0 0.15 62.17 0 0 -0.26c-1.51,-0.39 -3.03,-0.85 -4.43,-1.43 -2.08,-0.82 -4.01,-1.99 -5.79,-3.33 -2.24,-1.66 -4.32,-3.64 -6.25,-5.6 -2.95,-2.95 -5.76,-6.09 -8.48,-9.24z"/>
   <path class="fil0" d="M1185.19 1348.62l-27.61 -59.62 -25.04 0 -44.91 104.43c-1.87,3.74 -4.16,8.14 -6.83,11.36 -1.98,2.39 -4.31,4.42 -7.08,5.85 -2.01,1.05 -4.19,1.75 -6.41,2.22l0 0.17 48.02 0c-3.07,-0.45 -6.19,-1.37 -8.59,-3.22 -7.74,-5.99 -5.09,-18.69 -1.36,-26.34l30.14 -70.76 33.59 71.55c1.17,3.18 2.44,6.57 3.32,9.92 0.53,2.27 0.82,4.58 0.82,6.91 0,3.69 -1.53,6.81 -4.58,8.91 -2.38,1.65 -5.41,2.51 -8.37,2.98l0 0.05 63.58 0 0 -0.25c-2.42,-0.56 -4.84,-1.38 -6.9,-2.63 -2.46,-1.5 -4.49,-3.48 -6.02,-5.91 -9.32,-14.81 -17.84,-38.5 -25.77,-55.62z"/>
   <g>
    <path class="fil5" d="M1838.14 1289.33l0 -0.33 -60.02 0 0 0.32c1.89,0.45 3.83,1 5.57,1.73 2.19,0.93 4.16,2.29 5.45,4.24 1.36,1.93 2.05,4.18 2.23,6.43 0.27,2.6 0.34,5.26 0.34,7.87l0 82.17c0,2.65 -0.07,5.38 -0.41,8 -0.3,2.28 -0.95,4.51 -2.24,6.35 -1.36,2.01 -3.33,3.38 -5.56,4.27 -1.67,0.69 -3.52,1.21 -5.38,1.65l0 0.32 60.02 0 0 -0.3c-1.37,-0.31 -2.69,-0.69 -3.98,-1.15 -1.82,-0.63 -3.6,-1.5 -5.07,-2.75 -1.37,-1.16 -2.39,-2.59 -3.11,-4.23 -0.75,-1.76 -1.06,-3.78 -1.25,-5.68 -0.19,-2.15 -0.26,-4.32 -0.26,-6.48l0 -82.07c0,-2.81 0.04,-5.93 0.57,-8.63 0.34,-2.13 1.06,-4.17 2.34,-5.83 1.25,-1.8 3.03,-3.04 4.96,-3.98 1.75,-0.84 3.79,-1.44 5.8,-1.92z"/>
    <path class="fil5" d="M1938.53 1359.85l0 -43.81 0.08 0.17c4.24,6.62 8.97,13.11 13.78,19.4l3.03 3.97 56.15 72.77 27.3 0 0 -8.44 -8.93 -11.82 0 -2.27 0 -62.52 0 -17.71c0,-3.06 0.07,-6.8 0.87,-9.76 0.56,-2.11 1.47,-4.25 3.1,-5.86 1.37,-1.29 2.92,-2.28 4.58,-2.92 1.56,-0.66 3.37,-1.18 5.15,-1.64l0 -0.41 -41.38 0 0 0.36c1.89,0.45 3.82,0.99 5.41,1.69 1.74,0.74 3.41,1.78 4.62,3.13 1.55,1.58 2.39,3.67 2.8,5.73 0.68,2.96 0.72,6.64 0.72,9.68l0 17.71 0 0.77 0 0.78 0 46.41c-3.06,-4.79 -6.28,-9.5 -9.58,-14.14 -1.82,-2.51 -3.59,-5.03 -5.41,-7.54l-11.74 -15.49 -37.64 -49.09 -29.15 0 -5.84 0 -5.64 0 0 0.33c2.77,0.67 5.83,1.63 7.92,3.09 0.3,0.2 0.56,0.42 0.87,0.64l3.37 4.4c0.19,0.39 0.34,0.8 0.45,1.22 0.95,3.06 0.99,7.61 0.99,10.81l0 67.04 0 15.33c0,2.59 -0.08,5.27 -0.42,7.84 -0.3,2.24 -0.98,4.42 -2.27,6.36 -1.36,1.97 -3.3,3.32 -5.49,4.24 -1.71,0.72 -3.56,1.27 -5.42,1.72l0 0.33 41.39 0 0 -0.31c-2.76,-0.64 -5.83,-1.56 -7.88,-2.97 -2.23,-1.53 -3.9,-3.6 -4.73,-6.2 -1.02,-3.11 -1.06,-7.74 -1.06,-11.01l0 -15.33 0 -15.34 0 -0.67 0 -0.67z"/>
    <path class="fil5" d="M2234.2 1348.62l-27.61 -59.62 -25.04 0 -44.91 104.43c-1.87,3.74 -4.16,8.14 -6.83,11.36 -1.98,2.39 -4.31,4.42 -7.08,5.85 -2.01,1.05 -4.19,1.75 -6.41,2.22l0 0.17 48.02 0c-3.07,-0.45 -6.19,-1.37 -8.59,-3.22 -7.74,-5.99 -5.09,-18.69 -1.37,-26.34l30.15 -70.76 33.59 71.55c1.17,3.18 2.44,6.57 3.32,9.92 0.53,2.27 0.82,4.58 0.82,6.91 0,3.69 -1.53,6.81 -4.58,8.91 -2.38,1.65 -5.41,2.51 -8.37,2.98l0 0.05 63.58 0 0 -0.25c-2.42,-0.56 -4.84,-1.38 -6.91,-2.63 -2.45,-1.5 -4.48,-3.48 -6.02,-5.91 -9.32,-14.81 -17.83,-38.5 -25.76,-55.62z"/>
    <path class="fil5" d="M2469.5 1392.49l-29.84 -34.4 2.57 0c19.01,0 34.54,-15.54 34.54,-34.55 0,-8.61 -3.18,-16.52 -8.45,-22.59 -6.36,-7.31 -15.71,-11.95 -26.09,-11.95l-9.95 0 -38.1 0 -48.62 0 0 0.32c1.9,0.46 3.87,1.02 5.61,1.78 2.12,0.95 4.05,2.29 5.41,4.24 1.37,1.96 2.01,4.21 2.2,6.49 0.3,2.6 0.38,5.24 0.38,7.86l0 82.07c0,2.65 -0.08,5.38 -0.42,8 -0.3,2.28 -0.98,4.5 -2.27,6.35 -1.33,2.01 -3.29,3.38 -5.53,4.27 -1.7,0.69 -3.56,1.21 -5.38,1.65l0 0.32 48.62 0 13.03 0 0 -0.14c-2.16,-0.36 -4.35,-0.84 -6.29,-1.58 -2,-0.78 -3.97,-1.85 -5.41,-3.45 -1.52,-1.58 -2.42,-3.56 -2.88,-5.63 -0.72,-2.9 -0.76,-6.7 -0.76,-9.69l0 -16.02c0,-27.32 0,-54.64 0,-81.96l0 -0.22 24.31 0c10.3,0 19.46,5.3 24.84,13.3 2.5,3.76 4.2,8.12 4.81,12.81 0.15,1.24 0.23,2.5 0.23,3.77 0,10.74 -5.72,20.2 -14.28,25.47 -4.54,2.81 -9.88,4.42 -15.6,4.42l-16.66 0 7.35 8.49 0.04 0.07 0.07 0.07 0.08 0.07 0.04 0.07 0.07 0.07 0.04 0.07 0.07 0.07 0.08 0.07 14.65 16.96 4.78 5.49c2.99,3.46 6.05,6.98 8.89,10.64 1.14,1.51 2.5,3.39 3.18,5.22 0.5,1.32 0.76,2.7 0.76,4.1 0,2.28 -1.02,4.24 -2.88,5.57 -1.21,0.88 -2.84,1.4 -4.46,1.74l0 0.15 62.17 0 0 -0.26c-1.52,-0.39 -3.03,-0.85 -4.43,-1.43 -2.08,-0.82 -4.01,-1.99 -5.79,-3.33 -2.24,-1.66 -4.32,-3.64 -6.25,-5.6 -2.96,-2.95 -5.76,-6.09 -8.48,-9.24z"/>
    <path class="fil5" d="M2685.01 1348.62l-27.61 -59.62 -25.04 0 -44.92 104.43c-1.86,3.74 -4.15,8.14 -6.82,11.36 -1.98,2.39 -4.31,4.42 -7.08,5.85 -2.01,1.05 -4.19,1.75 -6.41,2.22l0 0.17 48.02 0c-3.07,-0.45 -6.19,-1.37 -8.59,-3.22 -7.74,-5.99 -5.09,-18.69 -1.36,-26.34l30.14 -70.76 33.59 71.55c1.17,3.18 2.44,6.57 3.32,9.92 0.53,2.27 0.82,4.58 0.82,6.91 0,3.69 -1.53,6.81 -4.58,8.91 -2.38,1.65 -5.41,2.51 -8.37,2.98l0 0.05 63.58 0 0 -0.25c-2.42,-0.56 -4.84,-1.38 -6.91,-2.63 -2.45,-1.5 -4.48,-3.48 -6.02,-5.91 -9.31,-14.81 -17.83,-38.5 -25.76,-55.62z"/>
   </g>
   <polygon class="fil4 str1" points="1.18,1.18 1501,1.18 3000.82,1.18 3000.82,901.07 1501,901.07 1.18,901.07 "/>
   <g>
    <path class="fil3" d="M737.09 336.96l0 -0.6 -111.07 0 0 0.58c3.51,0.83 7.08,1.85 10.31,3.21 4.06,1.71 7.7,4.24 10.09,7.84 2.52,3.57 3.78,7.73 4.13,11.9 0.49,4.81 0.63,9.74 0.63,14.57l0 152.07c0,4.91 -0.14,9.95 -0.77,14.81 -0.56,4.21 -1.75,8.33 -4.13,11.74 -2.53,3.72 -6.17,6.26 -10.31,7.91 -3.08,1.27 -6.51,2.24 -9.95,3.05l0 0.59 111.07 0 0 -0.54c-2.52,-0.59 -4.97,-1.29 -7.35,-2.14 -3.37,-1.17 -6.66,-2.78 -9.39,-5.1 -2.53,-2.13 -4.42,-4.78 -5.75,-7.82 -1.4,-3.26 -1.96,-6.99 -2.31,-10.52 -0.35,-3.98 -0.49,-7.98 -0.49,-11.98l0 -151.89c0,-5.2 0.07,-10.98 1.05,-15.97 0.63,-3.93 1.96,-7.71 4.34,-10.8 2.31,-3.31 5.61,-5.61 9.18,-7.35 3.22,-1.55 7.01,-2.67 10.72,-3.56z"/>
    <path class="fil3" d="M922.89 467.47l0 -81.08 0.14 0.31c7.85,12.26 16.61,24.26 25.51,35.92l5.6 7.34 103.92 134.67 50.53 0 0 -15.63 -16.54 -21.86 0 -4.2 0 -115.71 0 -32.77c0,-5.66 0.14,-12.59 1.61,-18.06 1.05,-3.92 2.73,-7.87 5.75,-10.85 2.52,-2.39 5.39,-4.21 8.48,-5.4 2.87,-1.22 6.23,-2.18 9.53,-3.04l0 -0.75 -76.59 0 0 0.65c3.5,0.84 7.07,1.84 10.02,3.14 3.22,1.36 6.3,3.29 8.55,5.78 2.87,2.93 4.41,6.81 5.18,10.61 1.26,5.48 1.33,12.3 1.33,17.92l0 32.77 0 1.43 0 1.43 0 85.9c-5.67,-8.87 -11.63,-17.58 -17.73,-26.16 -3.36,-4.66 -6.65,-9.32 -10.02,-13.96l-21.72 -28.68 -69.66 -90.83 -53.95 0 -10.8 0 -10.44 0 0 0.6c5.12,1.24 10.8,3.02 14.65,5.73 0.56,0.37 1.05,0.77 1.61,1.17l6.24 8.15c0.35,0.72 0.63,1.48 0.84,2.25 1.75,5.67 1.82,14.09 1.82,20.02l0 124.05 0 28.38c0,4.8 -0.14,9.76 -0.77,14.52 -0.56,4.14 -1.82,8.17 -4.2,11.77 -2.53,3.64 -6.1,6.14 -10.17,7.85 -3.15,1.33 -6.58,2.34 -10.02,3.17l0 0.61 76.59 0 0 -0.57c-5.11,-1.19 -10.78,-2.89 -14.57,-5.49 -4.13,-2.84 -7.22,-6.68 -8.76,-11.48 -1.89,-5.76 -1.96,-14.32 -1.96,-20.38l0 -28.38 0 -28.38 0 -1.24 0 -1.24z"/>
    <path class="fil3" d="M1470.08 446.68l-51.09 -110.32 -46.35 0 -83.13 193.26c-3.45,6.91 -7.68,15.06 -12.62,21.02 -3.68,4.42 -7.98,8.17 -13.12,10.83 -3.72,1.94 -7.74,3.25 -11.85,4.1l0 0.32 88.87 0c-5.69,-0.82 -11.45,-2.53 -15.89,-5.97 -14.33,-11.08 -9.42,-34.57 -2.53,-48.73l55.77 -130.96 62.18 132.41c2.16,5.89 4.51,12.16 6.14,18.38 0.99,4.19 1.52,8.46 1.52,12.77 0,6.84 -2.83,12.62 -8.48,16.5 -4.4,3.04 -10.01,4.64 -15.48,5.51l0 0.09 117.65 0 0 -0.47c-4.47,-1.03 -8.94,-2.54 -12.77,-4.87 -4.55,-2.76 -8.3,-6.42 -11.14,-10.93 -17.25,-27.41 -33,-71.25 -47.68,-102.94z"/>
    <path class="fil3" d="M1905.53 527.89l-55.22 -63.68 4.77 0c35.18,0 63.91,-28.76 63.91,-63.93 0,-15.94 -5.89,-30.58 -15.63,-41.81 -11.77,-13.53 -29.08,-22.11 -48.28,-22.11l-18.43 0 -70.5 0 -89.97 0 0 0.58c3.5,0.85 7.14,1.9 10.37,3.3 3.92,1.75 7.49,4.24 10.02,7.84 2.52,3.63 3.71,7.79 4.06,12.01 0.56,4.81 0.7,9.71 0.7,14.55l0 151.89c0,4.91 -0.14,9.95 -0.77,14.81 -0.56,4.2 -1.82,8.32 -4.2,11.74 -2.45,3.72 -6.1,6.26 -10.23,7.91 -3.16,1.27 -6.59,2.24 -9.95,3.05l0 0.59 89.97 0 24.11 0 0 -0.25c-3.99,-0.67 -8.06,-1.57 -11.63,-2.92 -3.72,-1.45 -7.36,-3.43 -10.02,-6.39 -2.81,-2.93 -4.49,-6.59 -5.33,-10.42 -1.33,-5.36 -1.4,-12.41 -1.4,-17.94l0 -29.64c0,-50.56 0,-101.12 0,-151.69l0 -0.4 44.99 0c19.06,0 36.02,9.8 45.97,24.62 4.62,6.96 7.77,15.02 8.9,23.71 0.28,2.28 0.42,4.62 0.42,6.97 0,19.88 -10.58,37.38 -26.42,47.13 -8.41,5.19 -18.29,8.19 -28.87,8.19l-30.84 0 13.6 15.7 0.07 0.14 0.14 0.13 0.14 0.12 0.07 0.13 0.14 0.13 0.07 0.13 0.14 0.12 0.14 0.14 27.12 31.39 8.83 10.15c5.53,6.41 11.21,12.93 16.47,19.71 2.1,2.78 4.62,6.26 5.88,9.65 0.91,2.44 1.4,4.99 1.4,7.59 0,4.22 -1.89,7.85 -5.32,10.31 -2.25,1.62 -5.26,2.6 -8.27,3.22l0 0.27 115.06 0 0 -0.47c-2.8,-0.73 -5.6,-1.59 -8.2,-2.66 -3.85,-1.51 -7.42,-3.68 -10.72,-6.15 -4.13,-3.07 -7.99,-6.74 -11.56,-10.37 -5.47,-5.46 -10.65,-11.27 -15.7,-17.09z"/>
    <path class="fil3" d="M2304.38 446.68l-51.09 -110.32 -46.35 0 -83.12 193.26c-3.46,6.91 -7.69,15.06 -12.63,21.02 -3.67,4.42 -7.98,8.17 -13.11,10.83 -3.72,1.94 -7.75,3.25 -11.86,4.1l0 0.32 88.87 0c-5.69,-0.82 -11.45,-2.53 -15.89,-5.97 -14.33,-11.08 -9.42,-34.57 -2.53,-48.73l55.78 -130.96 62.17 132.41c2.16,5.89 4.51,12.16 6.14,18.38 0.99,4.19 1.52,8.46 1.52,12.77 0,6.84 -2.83,12.62 -8.48,16.5 -4.4,3.04 -10.01,4.64 -15.48,5.51l0 0.09 117.65 0 0 -0.47c-4.47,-1.03 -8.94,-2.54 -12.77,-4.87 -4.55,-2.76 -8.3,-6.42 -11.14,-10.93 -17.25,-27.41 -33,-71.25 -47.68,-102.94z"/>
   </g>
  </g>
 </g>
</svg>
